Genre:Thriller
Language:English
IMDb:http://www.imdb.com/title/tt1230372/
Source:DVD Thanks!

Format : AVI
Format/Info : Audio Video Interleave
File size : 778 MiB
Duration : 1h 31mn
Overall bit rate : 1 191 Kbps

Video
ID : 0
Format : MPEG-4 Visual
Format profile : Advanced Simple@L5
Format settings, BVOP : Yes
Format settings, QPel : No
Format settings, GMC : No warppoints
Format settings, Matrix : Default (H.263)
Codec ID : XVID
Codec ID/Hint : XviD
Duration : 1h 31mn
Bit rate : 734 Kbps
Width : 624 pixels
Height : 352 pixels
Display aspect ratio : 16:9
Frame rate : 23.976 fps
Color space : YUV
Chroma subsampling : 4:2:0
Bit depth : 8 bits
Scan type : Progressive
Bits/(Pixel*Frame) : 0.139
Stream size : 480 MiB (62%)
Writing library : XviD 1.2.1 (UTC 2008-12-04)

Audio
ID : 1
Format : AC-3
Format/Info : Audio Coding 3
Mode extension : CM (complete main)
Codec ID : 2000
Duration : 1h 31mn
Bit rate mode : Constant
Bit rate : 448 Kbps
Channel(s) : 6 channels
Channel positions : Front: L C R, Side: L R, LFE
Sampling rate : 48.0 KHz
Bit depth : 16 bits
Stream size : 293 MiB (38%)
Alignment : Aligned on interleaves
Interleave, duration : 42 ms (1.00 video frame)
Interleave, preload duration : 512 ms


Plot:
After a shocking photo of a young woman is found inside the twisted metal of a
fatal car crash, veteran detective Emory Lloyd must risk everything to identify
and find the woman before it's too late.
 
http://img577.imageshack.us/img577/9786/vlcsnap00001jy.png
 
http://img69.imageshack.us/img69/1062/vlcsnap00002tm.png
 
http://img831.imageshack.us/img831/5919/vlcsnap00003i.png
 
http://img828.imageshack.us/img828/4230/vlcsnap00006rw.png

Greets:

INK,CRYS,IMAGINE,LKRG,FXG,3Li,FLAWL3SS,TA,iLLUSiON,ViSiON,DTRG SAFCuk009,LU,TheFalcon007,MYSTiC,PrisM,Noir,WBZ,LAP,Rx,Kingdom,SAFCuk009+Fabreezy,HDLiTE,
TWiZTED,ExtraTorrentRG.ELEKTRI4KA,MAGNAT,CM8
And to all the other p2p grps past and present




Make sure its a real Feel-Free release @ extratorrent